HIERARCHY
ROOT Hips
{
	OFFSET 0.000000 0.000000 0.000000 
	CHANNELS 6 Xposition Yposition Zposition Zrotation Yrotation Xrotation
	JOINT LeftUpLeg
	{
		OFFSET 1.363060 -1.794630 0.839290 
		CHANNELS 3 Zrotation Yrotation Xrotation
		JOINT LeftLeg
		{
			OFFSET 2.448110 -6.726130 0.000000 
			CHANNELS 3 Zrotation Yrotation Xrotation
			JOINT LeftFoot
			{
				OFFSET 2.562200 -7.039590 0.000000 
				CHANNELS 3 Zrotation Yrotation Xrotation
				JOINT LeftToeBase
				{
					OFFSET 0.157640 -0.433110 2.322550 
					CHANNELS 3 Zrotation Yrotation Xrotation
					End Site
					{
						OFFSET 0.000000 0.000000 0.000000 
					}
				}
			}
		}
	}
	JOINT RightUpLeg
	{
		OFFSET -1.305520 -1.794630 0.839290 
		CHANNELS 3 Zrotation Yrotation Xrotation
		JOINT RightLeg
		{
			OFFSET -2.542530 -6.985550 0.000000 
			CHANNELS 3 Zrotation Yrotation Xrotation
			JOINT RightFoot
			{
				OFFSET -2.568260 -7.056230 0.000000 
				CHANNELS 3 Zrotation Yrotation Xrotation
				JOINT RightToeBase
				{
					OFFSET -0.164730 -0.452590 2.363150 
					CHANNELS 3 Zrotation Yrotation Xrotation
					End Site
					{
						OFFSET 0.000000 0.000000 0.000000 
					}
				}
			}
		}
	}
	JOINT Spine
	{
		OFFSET 0.028270 2.035590 -0.193380 
		CHANNELS 3 Zrotation Yrotation Xrotation
		JOINT Spine1
		{
			OFFSET 0.056720 2.048850 -0.042750 
			CHANNELS 3 Zrotation Yrotation Xrotation
			JOINT Neck1
			{
				OFFSET -0.054170 1.746240 0.172020 
				CHANNELS 3 Zrotation Yrotation Xrotation
				JOINT Head
				{
					OFFSET 0.104070 1.761360 -0.123970 
					CHANNELS 3 Zrotation Yrotation Xrotation
					End Site
					{
						OFFSET 0.000000 0.000000 0.000000 
					}
				}
			}
			JOINT LeftArm
			{
				OFFSET 3.362410 1.200890 -0.311210 
				CHANNELS 3 Zrotation Yrotation Xrotation
				JOINT LeftForeArm
				{
					OFFSET 4.983000 -0.000000 -0.000000 
					CHANNELS 3 Zrotation Yrotation Xrotation
					JOINT LeftHand
					{
						OFFSET 3.483560 -0.000000 -0.000000 
						CHANNELS 3 Zrotation Yrotation Xrotation
						JOINT LeftHandIndex1
						{
							OFFSET 0.715260 -0.000000 -0.000000 
							CHANNELS 3 Zrotation Yrotation Xrotation
							End Site
							{
								OFFSET 0.000000 0.000000 0.000000 
							}
						}
					}
				}
			}
			JOINT RightArm
			{
				OFFSET -3.136600 1.374050 -0.404650 
				CHANNELS 3 Zrotation Yrotation Xrotation
				JOINT RightForeArm
				{
					OFFSET -5.241900 -0.000000 -0.000000 
					CHANNELS 3 Zrotation Yrotation Xrotation
					JOINT RightHand
					{
						OFFSET -3.444170 -0.000000 -0.000000 
						CHANNELS 3 Zrotation Yrotation Xrotation
						JOINT RightHandIndex1
						{
							OFFSET -0.622530 -0.000000 -0.000000 
							CHANNELS 3 Zrotation Yrotation Xrotation
							End Site
							{
								OFFSET 0.000000 0.000000 0.000000 
							}
						}
					}
				}
			}
		}
	}
}
MOTION
Frames: 7
Frame Time: 0.041667
13.884233 24.328823 -11.619820 30.253667 38.757150 24.919407 -19.691645 -28.801640 -45.332877 -40.933049 -45.981734 32.403944 25.550640 5.408165 80.310617 6.584400 -14.971700 -47.284400 -31.720546 -43.944460 -4.358938 6.546781 -0.511695 34.810647 -10.269518 -41.451478 62.955265 -0.145400 2.457700 -6.772500 -31.194695 12.112143 -23.427091 11.367180 -1.353037 4.402090 6.591595 -29.417270 4.897197 5.008000 -14.844000 6.533800 -33.970436 -35.380716 -19.013527 104.816182 -21.268179 -107.945214 4.596343 -10.315287 -29.402769 -7.125000 0.000000 0.000000 2.852311 63.500312 -18.672731 -85.140298 70.285751 -82.939693 4.530668 0.128112 2.063861 7.125000 0.000000 0.000000 
13.826868 24.348855 -11.521024 15.110307 29.294650 21.171316 -21.335724 -35.413884 -25.915708 6.714515 -50.263745 73.699071 27.906016 12.332543 72.253578 6.542300 -14.934000 -47.121200 -19.514827 -33.958909 -4.718604 3.507655 1.780670 33.098898 -9.814919 -43.056326 65.492639 -0.458800 4.344900 -12.049100 -29.484745 4.806433 -23.491623 14.116230 5.296408 8.516023 6.110953 -29.473858 5.018294 5.136400 -14.876700 6.673900 -40.202267 -37.737802 -18.348908 111.886285 -21.467856 -108.189648 4.225497 -10.144696 -30.187273 -7.125000 0.000000 0.000000 4.310284 66.157997 -18.095108 -83.757515 71.734019 -82.498760 4.923189 -0.126451 2.121807 7.125000 0.000000 0.000000 
13.756451 24.345365 -11.421621 12.026967 34.785730 16.864652 9.239319 -24.795068 -28.559977 -12.045316 -45.869385 47.578114 41.053621 13.714988 63.957776 6.460600 -14.860300 -46.803500 -15.575423 -29.494768 -7.045591 7.433460 -6.343999 35.699392 -9.548845 -44.622097 65.832770 -0.975600 6.287900 -17.622100 -27.003690 -13.589042 -25.021943 17.804959 9.951073 10.374300 4.907143 -29.492732 4.880838 5.174600 -14.906800 6.786100 -48.354434 -41.196715 -21.263345 121.182856 -25.062183 -108.702812 3.667356 -9.896066 -31.332955 -7.125000 0.000000 0.000000 7.533788 69.293899 -17.046382 -83.375325 74.175170 -82.251058 5.322301 -0.632303 1.773218 7.125000 0.000000 0.000000 
13.672376 24.370405 -11.320245 11.170757 37.700618 14.235437 20.218258 -31.171300 -25.153871 -12.500802 -43.087209 41.042461 27.347243 12.780943 48.462444 6.475500 -14.873800 -46.861600 -21.957594 -29.510863 -9.649604 20.676822 -11.617838 40.367325 -8.531784 -46.632333 68.728327 -1.371000 7.410200 -20.936600 -24.082343 -25.798169 -27.101399 18.449948 13.755893 11.157418 4.203369 -29.546093 4.738187 5.108900 -14.954300 6.654600 -53.026896 -41.322879 -23.696684 125.557225 -27.926696 -109.119823 3.442898 -9.733970 -32.479438 -7.125000 0.000000 0.000000 9.174333 72.164661 -16.155303 -83.146132 74.974899 -81.842464 5.443132 -0.793630 1.287132 7.125000 0.000000 0.000000 
13.571607 24.399998 -11.213255 8.932017 36.595350 15.069192 25.261528 -29.945198 -20.381240 -12.541255 -53.655337 45.836767 37.215002 17.349815 45.567276 6.442500 -14.843900 -46.732800 -33.379105 -27.748494 -12.479390 31.821325 -15.503353 46.078866 -7.214638 -48.905853 65.814972 -1.807600 8.453300 -24.099700 -19.453699 -38.088821 -28.869230 18.077534 18.960907 11.636065 4.105250 -29.742738 4.388611 5.183300 -15.024600 6.487100 -56.312452 -40.818502 -26.507007 128.575559 -30.874690 -109.515758 2.976538 -9.775958 -33.686273 -7.125000 0.000000 0.000000 11.142327 73.618683 -14.937475 -83.029115 76.362880 -81.478404 5.567363 -0.958472 1.026185 7.125000 0.000000 0.000000 
13.459457 24.465103 -11.096399 5.950818 35.242269 23.778569 19.720662 -11.066822 -6.154521 25.813237 -24.679027 -17.120888 0.694547 22.030772 87.418902 6.277700 -14.692200 -46.086400 -32.371376 -27.706382 -11.406340 25.111773 -15.287403 43.333548 -6.055087 -45.809344 54.050165 -1.144000 6.791900 -19.100400 -9.780661 -48.542397 -27.842241 13.481725 27.019924 9.341935 6.415803 -29.924576 4.890997 5.889500 -15.162400 6.700900 -44.432743 -36.592243 -31.939558 119.741042 -36.139995 -109.272569 3.310305 -10.145934 -33.839079 -7.125000 0.000000 0.000000 10.972853 70.786057 -12.029820 -82.786509 81.001478 -80.907656 5.059810 0.016620 1.473270 7.125000 0.000000 0.000000 
13.352314 24.496518 -10.986373 18.254100 35.325180 22.193960 -2.989278 5.007377 -22.140615 13.544558 -27.777713 54.783030 50.790698 3.166613 56.862091 5.780400 -14.212100 -44.093700 -30.736823 -22.691912 -9.903884 32.337357 -13.915940 47.687461 -4.796194 -44.657135 47.971026 -1.081900 6.611000 -18.568000 -18.980927 -41.384377 -29.845973 8.970274 28.463181 8.244742 7.990709 -30.033848 6.072558 5.467400 -15.164600 6.715800 -36.601248 -32.331959 -25.455474 110.551558 -32.743463 -108.753309 4.350523 -10.101682 -33.379287 -7.125000 0.000000 0.000000 10.245523 68.472276 -13.956318 -87.906713 81.794820 -80.919641 3.862987 0.767267 1.465146 7.125000 0.000000 0.000000 
